<?xml version="1.0" standalone="no"?>
<!DOCTYPE svg PUBLIC "-//W3C//DTD SVG 20010904//EN"
 "http://www.w3.org/TR/2001/REC-SVG-20010904/DTD/svg10.dtd">
<svg version="1.0" xmlns="http://www.w3.org/2000/svg"
 width="1245.000000pt" height="475.000000pt" viewBox="0 0 1245.000000 475.000000"
 preserveAspectRatio="xMidYMid meet">

<g transform="translate(0.000000,475.000000) scale(0.100000,-0.100000)"
fill="#000000" stroke="none">
<path d="M6301 4391 c-9 -6 -16 -32 -19 -69 -4 -51 -1 -63 18 -82 19 -19 24
-20 43 -7 18 11 23 26 25 70 4 83 -22 116 -67 88z"/>
<path d="M6090 4325 c-12 -15 -11 -23 9 -60 24 -46 56 -85 70 -85 4 0 16 9 27
21 19 21 18 22 -13 77 -33 61 -67 78 -93 47z"/>
<path d="M6486 4318 c-37 -59 -50 -97 -36 -113 24 -29 56 -18 85 30 34 58 31
99 -7 103 -19 2 -31 -3 -42 -20z"/>
<path d="M4842 4200 c-23 -17 -99 -76 -169 -131 l-128 -101 -3 58 c-2 32 -8
64 -14 71 -6 8 -34 13 -74 13 -88 0 -94 -10 -94 -165 l-1 -120 -139 -104 c-76
-58 -143 -115 -149 -128 -16 -35 -13 -99 5 -117 12 -12 36 -16 100 -16 l84 0
0 -328 c0 -268 3 -332 14 -348 14 -18 33 -19 535 -22 311 -1 521 1 521 7 0 5
9 76 20 157 11 82 20 151 20 154 0 3 -26 5 -59 5 -46 1 -67 6 -98 27 -48 32
-83 85 -90 136 -7 49 58 294 97 372 34 68 115 159 164 185 20 11 36 23 36 27
0 8 -455 370 -487 387 -32 17 -46 14 -91 -19z"/>
<path d="M7730 4223 c-8 -4 -125 -92 -258 -197 -240 -188 -243 -191 -220 -206
49 -31 134 -121 167 -175 38 -63 110 -303 111 -368 1 -115 -108 -211 -220
-195 -36 5 -35 18 -10 -168 11 -82 20 -150 20 -151 0 -2 233 -3 518 -3 490 0
520 1 535 18 15 17 17 56 17 350 l0 332 83 0 c69 0 87 3 100 18 17 19 23 85
11 117 -4 8 -71 65 -150 126 l-144 110 0 124 c0 148 -4 155 -88 155 -77 0 -86
-8 -92 -79 l-5 -61 -163 130 c-155 124 -177 136 -212 123z"/>
<path d="M5634 4176 c-69 -30 -113 -132 -92 -213 15 -60 80 -119 141 -128 129
-20 238 97 206 220 -14 53 -54 104 -95 121 -42 18 -119 17 -160 0z"/>
<path d="M6848 4170 c-22 -12 -48 -38 -64 -65 -22 -39 -26 -54 -22 -104 12
-174 228 -231 326 -87 58 85 24 213 -69 261 -40 21 -126 18 -171 -5z"/>
<path d="M6151 4083 c-14 -12 -31 -52 -48 -112 -31 -109 -64 -153 -131 -170
-23 -7 -126 -15 -229 -20 -178 -7 -191 -9 -242 -35 -69 -36 -141 -103 -174
-164 -29 -53 -87 -255 -87 -303 0 -43 15 -65 51 -78 23 -8 39 -7 64 3 37 16
38 19 85 198 15 58 32 98 51 120 l28 33 1 -135 c0 -105 -10 -210 -44 -470 -42
-310 -44 -337 -30 -366 20 -42 63 -61 103 -44 58 24 60 29 101 351 22 167 40
308 40 312 0 5 10 7 22 5 22 -3 24 -14 64 -304 23 -166 47 -311 53 -323 13
-24 61 -51 89 -51 27 0 69 35 76 64 3 13 -13 158 -35 322 -32 235 -42 343 -46
505 l-6 206 54 7 c102 14 187 65 238 144 29 46 81 205 81 248 0 12 -9 33 -21
48 -25 31 -75 35 -108 9z"/>
<path d="M6393 4074 c-22 -23 -25 -31 -20 -72 4 -26 18 -84 32 -129 43 -138
141 -224 273 -241 l57 -7 -3 -200 c-2 -163 -10 -256 -42 -502 -22 -166 -40
-310 -40 -318 0 -9 13 -30 29 -46 38 -38 80 -39 120 -2 30 28 31 31 71 318 49
343 47 335 70 335 23 0 21 7 65 -315 19 -143 38 -272 41 -286 14 -68 114 -101
155 -50 26 32 25 64 -21 393 -36 254 -40 306 -38 445 l3 158 23 -38 c13 -20
39 -92 57 -158 19 -67 41 -129 50 -139 24 -27 61 -33 96 -15 53 28 55 49 20
182 -17 65 -45 145 -61 179 -36 75 -110 146 -187 181 -52 24 -73 27 -252 34
-107 5 -209 13 -227 19 -54 18 -87 66 -113 165 -15 56 -32 97 -47 112 -32 31
-78 30 -111 -3z"/>
<path d="M5753 1858 c-4 -7 -9 -328 -11 -714 -3 -699 -2 -701 18 -727 21 -27
22 -27 159 -27 121 0 140 2 154 18 14 16 17 44 17 178 l1 159 50 54 c40 43 53
52 60 40 5 -8 78 -111 161 -229 l153 -215 186 -3 c209 -3 217 0 180 63 -14 24
-274 362 -462 601 -6 7 57 82 186 218 107 114 195 212 195 219 0 32 -24 37
-194 37 l-169 0 -49 -52 c-27 -29 -103 -114 -171 -189 l-122 -136 -5 346 c-3
190 -9 352 -13 359 -6 9 -50 12 -162 12 -112 0 -156 -3 -162 -12z"/>
<path d="M677 1718 c-16 -12 -17 -61 -15 -668 l3 -655 170 0 170 0 3 189 c3
211 -4 187 85 290 l33 39 126 -199 c70 -109 147 -227 172 -261 l46 -63 196 0
c184 0 196 1 192 18 -3 10 -109 174 -237 365 -127 191 -231 352 -231 358 0 6
97 139 215 295 119 157 213 289 210 294 -4 6 -84 10 -194 10 -168 0 -189 -2
-207 -18 -10 -10 -104 -130 -209 -266 l-190 -247 -3 253 c-2 224 -4 254 -19
266 -12 8 -61 12 -158 12 -97 0 -146 -4 -158 -12z"/>
<path d="M7060 1721 c-13 -9 -15 -96 -15 -653 0 -354 4 -651 7 -660 7 -17 30
-18 291 -18 320 0 378 9 512 75 340 168 466 597 273 928 -81 140 -208 240
-375 298 l-98 34 -290 3 c-177 1 -296 -1 -305 -7z m560 -331 c101 -28 203
-125 236 -224 24 -72 15 -195 -18 -261 -28 -54 -95 -123 -146 -149 -49 -25
-151 -46 -229 -46 l-73 0 0 343 c0 189 3 347 8 351 9 10 174 -1 222 -14z"/>
<path d="M2535 1537 c-22 -8 -51 -19 -64 -27 -38 -20 -121 -101 -139 -135
l-15 -30 -19 75 c-28 108 -31 110 -153 110 -86 0 -104 -3 -118 -18 -15 -17
-17 -70 -17 -554 0 -505 1 -536 18 -551 15 -14 42 -17 153 -17 74 0 141 5 149
10 13 8 16 61 20 342 l5 333 28 48 c73 124 226 141 321 37 19 -21 39 -56 45
-77 7 -23 11 -162 11 -354 0 -258 3 -319 14 -328 9 -8 60 -11 157 -9 142 3
144 3 157 28 21 40 11 704 -12 784 -40 141 -130 251 -252 308 -56 26 -81 31
-158 34 -58 3 -106 -1 -131 -9z"/>
<path d="M3712 1536 c-254 -62 -451 -309 -452 -568 -1 -271 187 -517 445 -583
76 -19 224 -19 299 0 199 52 361 213 422 420 28 96 24 240 -10 340 -33 96 -99
198 -168 260 -59 53 -188 118 -266 134 -69 14 -203 13 -270 -3z m217 -302
c166 -49 233 -300 123 -459 -82 -117 -274 -130 -381 -24 -56 56 -76 111 -75
209 1 118 31 182 115 243 61 45 135 56 218 31z"/>
<path d="M5036 1534 c-73 -18 -177 -72 -239 -125 -247 -212 -269 -609 -48
-850 61 -67 161 -133 246 -163 74 -27 243 -33 324 -11 116 30 251 108 251 146
0 31 -122 208 -148 215 -16 4 -49 -5 -101 -30 -64 -30 -88 -36 -141 -36 -153
1 -255 114 -254 280 1 167 105 283 254 284 55 0 78 -6 148 -39 103 -48 110
-45 180 74 55 93 61 114 37 147 -19 28 -144 89 -221 108 -75 19 -208 19 -288
0z"/>
<path d="M8822 1530 c-206 -54 -364 -217 -418 -430 -22 -89 -15 -251 16 -339
31 -88 112 -204 179 -258 70 -56 176 -108 250 -124 32 -6 102 -9 166 -7 95 4
120 9 185 36 324 137 461 502 308 819 -40 82 -167 215 -245 256 -122 65 -300
84 -441 47z m268 -310 c151 -77 189 -327 70 -462 -48 -56 -104 -79 -184 -79
-100 0 -172 42 -223 129 -36 61 -44 184 -18 263 24 70 95 142 161 163 60 19
140 13 194 -14z"/>
<path d="M10167 1534 c-207 -50 -383 -227 -432 -436 -56 -236 44 -493 243
-630 90 -62 176 -90 297 -95 127 -6 194 5 283 47 169 80 281 216 328 400 22
88 15 251 -14 334 -87 241 -309 398 -562 395 -47 0 -111 -7 -143 -15z m202
-295 c59 -12 130 -70 164 -133 19 -35 22 -57 22 -146 0 -118 -14 -157 -77
-217 -106 -102 -294 -81 -375 40 -43 64 -56 117 -51 203 8 123 81 222 185 250
61 16 71 16 132 3z"/>
<path d="M11562 1529 c-25 -13 -66 -49 -99 -90 -31 -37 -60 -66 -64 -63 -4 2
-15 26 -24 54 -9 27 -25 60 -36 74 -19 25 -25 26 -117 26 -53 0 -103 -4 -110
-8 -7 -5 -16 -22 -20 -38 -4 -16 -8 -261 -7 -545 0 -422 2 -519 14 -532 20
-24 291 -25 315 -1 14 13 16 60 16 360 l0 345 30 44 c72 105 184 121 298 44
63 -43 77 -46 109 -24 36 25 126 192 119 220 -7 28 -136 118 -194 135 -20 7
-71 14 -112 16 -63 5 -82 2 -118 -17z"/>
</g>
</svg>
